<mxfile host="app.diagrams.net" modified="2023-08-12T06:09:55.957Z" agent="Mozilla/5.0 (Windows NT 10.0; Win64; x64) AppleWebKit/537.36 (KHTML, like Gecko) Chrome/115.0.0.0 Safari/537.36" version="21.6.8" etag="asRjirPeFFxM-SvJ7M9o" type="github">
  <diagram name="Halaman-1" id="eYeEUj-7skBkyDRVU0NV">
    <mxGraphModel>
      <root>
        <mxCell id="0" />
        <mxCell id="1" parent="0" />
      </root>
    </mxGraphModel>
  </diagram>
</mxfile>
